<?xml version="1.0" encoding="utf-8"?>
<!-- Generator: Adobe Illustrator 27.5.0, SVG Export Plug-In . SVG Version: 6.00 Build 0)  -->
<svg version="1.1" id="Layer_1" xmlns="http://www.w3.org/2000/svg" xmlns:xlink="http://www.w3.org/1999/xlink" x="0px" y="0px"
	 viewBox="0 0 2000 500" style="enable-background:new 0 0 2000 500;" xml:space="preserve">
<style type="text/css">
	.st0{clip-path:url(#SVGID_00000048494967429527673600000006918611325696086696_);}
	.st1{fill:#FFFFFF;}
	.st2{clip-path:url(#SVGID_00000111882935656167041770000008765324116853166478_);}
	.st3{fill:#FFFFFF;}
	.st4{fill:#FFFFFF;}
</style>
<g>
	<defs>
		<rect id="SVGID_1_" x="411.2" y="95.3" width="307.3" height="307.3"/>
	</defs>
	<clipPath id="SVGID_00000123426986601675995970000006362675637338434469_">
		<use xlink:href="#SVGID_1_"  style="overflow:visible;"/>
	</clipPath>
	<g style="clip-path:url(#SVGID_00000123426986601675995970000006362675637338434469_);">
		<path class="st1" d="M610,363.3c-14,5.5-29.2,8.5-45.1,8.5c-67.9,0-122.9-55-122.9-122.9c0-67.9,55-122.9,122.9-122.9
			c15.3,0,29.9,2.8,43.4,7.9c1.1-1.2,2.1-2.4,2.9-3.3c2.2-2.1,4.3-4.1,6.6-6.1c4.7-4.1,9.8-7.8,15.5-10.4c1-0.5,2-0.8,3-1.1
			l-4.4-2.4c-20.3-9.8-43-15.3-67-15.3c-84.9,0-153.7,68.8-153.7,153.7c0,84.9,68.8,153.7,153.7,153.7c25,0,48.5-5.9,69.4-16.5
			C625.3,379.8,617.4,371.4,610,363.3z"/>
		<path class="st1" d="M653.6,123.5c-1.4,1-3.1,1.5-4.9,1.9c-3,0.8-6.1,1-9.2,1c-0.3,0-0.7,0-1,0c-4.7,4-9,8.6-12.6,13.1
			c-0.5,0.6-1.3,1.2-2.2,1.6c38.2,20.9,64,61.4,64,107.9c0,46.2-25.4,86.4-63,107.4c1.7,0.2,3.4,0.6,4.8,1.3
			c5.4,2.7,9.8,9,14.2,13.2c2.1,2,4.2,4.1,6.4,6.1c41.3-27.5,68.5-74.5,68.5-127.9C718.5,197.1,692.9,151.3,653.6,123.5z"/>
	</g>
</g>
<g>
	<defs>
		<rect id="SVGID_00000010297722020575266790000011185527581496470446_" x="576.3" y="96.3" width="307.3" height="307.4"/>
	</defs>
	<clipPath id="SVGID_00000158714490150813554930000017277712037298287290_">
		<use xlink:href="#SVGID_00000010297722020575266790000011185527581496470446_"  style="overflow:visible;"/>
	</clipPath>
	<g style="clip-path:url(#SVGID_00000158714490150813554930000017277712037298287290_);">
		<path class="st3" d="M730,96.3c-84.9,0-153.7,68.8-153.7,153.7S645.1,403.7,730,403.7c84.9,0,153.7-68.8,153.7-153.7
			S814.9,96.3,730,96.3z M730,372.9C662,372.9,607,317.9,607,250S662,127.1,730,127.1c67.9,0,122.9,55,122.9,122.9
			S797.9,372.9,730,372.9z"/>
	</g>
</g>
<g>
	<g transform="translate(29.592989, 260.669849)">
		<g>
			<path class="st4" d="M60.4,7.1v79.8H33.5v-203.7h75.1c22.3,0,39.8,5.7,52.4,17.1c12.6,11.4,19,26.4,19,45.2
				c0,19.8-6.2,35-18.5,45.7c-12.3,10.7-30,16-53.1,16H60.4z M60.4-14.8h48.3c14.4,0,25.4-3.4,33-10.1c7.7-6.8,11.5-16.5,11.5-29.3
				c0-12.1-3.8-21.8-11.5-29.1c-7.6-7.3-18.1-11.1-31.5-11.3H60.4V-14.8z"/>
		</g>
	</g>
</g>
<g>
	<g transform="translate(165.170372, 260.669849)">
		<g>
			<path class="st4" d="M138.7-3.9c-23-6.6-39.8-14.7-50.3-24.4C77.9-38,72.7-49.9,72.7-64.1c0-16,6.4-29.3,19.2-39.8
				c12.8-10.5,29.5-15.8,50-15.8c14,0,26.5,2.7,37.4,8.1c11,5.4,19.4,12.9,25.5,22.4c6,9.5,9,19.9,9,31.2h-27c0-12.3-3.9-22-11.8-29
				S156.2-97.5,142-97.5c-13.2,0-23.6,2.9-31,8.8c-7.4,5.8-11.1,13.9-11.1,24.2c0,8.3,3.5,15.3,10.6,21.1c7,5.7,19,11,36,15.8
				c16.9,4.8,30.2,10,39.7,15.7c9.6,5.7,16.7,12.4,21.3,20.1c4.6,7.7,6.9,16.7,6.9,27c0,16.5-6.4,29.7-19.3,39.7
				c-12.9,9.9-30.1,14.9-51.6,14.9c-14,0-27.1-2.7-39.2-8s-21.5-12.7-28.1-22c-6.6-9.3-9.9-19.9-9.9-31.8h27
				c0,12.3,4.5,22,13.6,29.2c9.1,7.1,21.3,10.7,36.5,10.7c14.2,0,25-2.9,32.6-8.7c7.6-5.8,11.3-13.7,11.3-23.6
				c0-10-3.5-17.7-10.5-23.2C169.8,6.8,157.1,1.4,138.7-3.9z"/>
		</g>
	</g>
</g>
<g>
	<g transform="translate(696.357705, 260.679407)">
		<g>
			<path class="st4" d="M330.5,4.4h-47.9v82.5h-27v-203.8h67.5c22.9,0,40.6,5.2,53,15.7c12.4,10.4,18.6,25.7,18.6,45.6
				c0,12.7-3.4,23.8-10.3,33.2C377.5-13,367.9-6,355.7-1.3l47.9,86.5v1.7h-28.8L330.5,4.4z M282.7-17.5H324c13.3,0,24-3.4,31.8-10.4
				c7.9-6.9,11.8-16.1,11.8-27.7c0-12.6-3.8-22.3-11.3-29c-7.5-6.7-18.4-10.1-32.5-10.2h-41.1V-17.5z"/>
		</g>
	</g>
</g>
<g>
	<g transform="translate(828.737786, 260.679407)">
		<g>
			<path class="st4" d="M415.1-7.3h-88.3v72.2h102.6v22H299.9v-203.8H428v22.1H326.8v65.5h88.3V-7.3z"/>
		</g>
	</g>
</g>
<g>
	<g transform="translate(950.934783, 260.679407)">
		<g>
			<path class="st4" d="M400.7-4c-23.1-6.6-39.8-14.8-50.3-24.4C339.9-38,334.6-50,334.6-64.1c0-16.1,6.4-29.3,19.2-39.8
				c12.8-10.5,29.5-15.8,50.1-15.8c14,0,26.5,2.7,37.4,8.1c11,5.4,19.5,12.9,25.5,22.4c6,9.5,9,19.9,9,31.2h-27
				c0-12.3-3.9-22-11.8-29c-7.8-7.1-18.9-10.6-33.2-10.6c-13.2,0-23.6,2.9-31,8.8c-7.4,5.8-11.1,13.9-11.1,24.3
				c0,8.3,3.5,15.3,10.6,21.1c7.1,5.7,19,11,36,15.8c16.9,4.8,30.2,10,39.8,15.8c9.6,5.7,16.7,12.4,21.3,20.1
				c4.6,7.7,6.9,16.7,6.9,27c0,16.5-6.4,29.7-19.3,39.7c-12.9,9.9-30.1,14.9-51.6,14.9c-14,0-27.1-2.7-39.2-8
				c-12.1-5.4-21.5-12.7-28.1-22c-6.6-9.3-9.9-19.9-9.9-31.8h27c0,12.3,4.5,22.1,13.6,29.2c9.1,7.1,21.3,10.7,36.5,10.7
				c14.2,0,25-2.9,32.6-8.7c7.6-5.8,11.4-13.7,11.4-23.7c0-10-3.5-17.7-10.5-23.2S419.1,1.4,400.7-4z"/>
		</g>
	</g>
</g>
<g>
	<g transform="translate(1078.485773, 260.679407)">
		<g>
			<path class="st4" d="M524-94.8h-65.5V86.9h-26.8V-94.8h-65.4v-22.1H524V-94.8z"/>
		</g>
	</g>
</g>
<g>
	<g transform="translate(1206.771624, 260.679407)">
		<g>
			<path class="st4" d="M434.6,86.9V-44.5h-23.9v-20h23.9v-15.5c0-16.2,4.3-28.8,13-37.6c8.7-8.9,20.9-13.3,36.8-13.3
				c6,0,11.9,0.8,17.8,2.4l-1.4,21c-4.4-0.8-9-1.2-14-1.2c-8.4,0-14.9,2.5-19.5,7.4c-4.6,4.9-6.9,11.9-6.9,21.1v16h32.3v20h-32.3
				V86.9H434.6z"/>
		</g>
	</g>
</g>
<g>
	<g transform="translate(1281.412573, 260.679407)">
		<g>
			<path class="st4" d="M540.2,71.9c-10.1,11.8-24.9,17.8-44.4,17.8c-16.1,0-28.4-4.7-36.9-14.1c-8.4-9.4-12.7-23.3-12.8-41.6v-98.5
				h25.9v97.9c0,22.9,9.3,34.4,28,34.4c19.8,0,32.9-7.4,39.5-22.1V-64.6h25.9V86.9h-24.6L540.2,71.9z"/>
		</g>
	</g>
</g>
<g>
	<g transform="translate(1399.935262, 260.679407)">
		<g>
			<path class="st4" d="M514.4,86.9h-25.9v-215h25.9V86.9z"/>
		</g>
	</g>
</g>
</svg>
