<svg xmlns="http://www.w3.org/2000/svg" xmlns:xlink="http://www.w3.org/1999/xlink" width="160" zoomAndPan="magnify" viewBox="0 0 120 34.499999" height="46" preserveAspectRatio="xMidYMid meet" version="1.0"><defs><g/><clipPath id="8bd613aab2"><path d="M 25.242188 8.5 L 41.464844 8.5 L 41.464844 24.722656 L 25.242188 24.722656 Z M 25.242188 8.5 " clip-rule="nonzero"/></clipPath><clipPath id="3835252be8"><path d="M 33 7 L 53 7 L 53 27 L 33 27 Z M 33 7 " clip-rule="nonzero"/></clipPath><clipPath id="ab06061f3e"><path d="M 36.453125 4.960938 L 54.8125 10.003906 L 49.769531 28.363281 L 31.410156 23.320312 Z M 36.453125 4.960938 " clip-rule="nonzero"/></clipPath><clipPath id="7d36aa91a5"><path d="M 36.453125 4.960938 L 54.8125 10.003906 L 49.769531 28.363281 L 31.410156 23.320312 Z M 36.453125 4.960938 " clip-rule="nonzero"/></clipPath><clipPath id="c0361d7a28"><path d="M 34.21875 8.554688 L 50.441406 8.554688 L 50.441406 24.777344 L 34.21875 24.777344 Z M 34.21875 8.554688 " clip-rule="nonzero"/></clipPath></defs><g clip-path="url(#8bd613aab2)"><path fill="#004aad" d="M 33.351562 8.5 C 28.871094 8.5 25.242188 12.128906 25.242188 16.613281 C 25.242188 21.09375 28.871094 24.722656 33.351562 24.722656 C 37.832031 24.722656 41.464844 21.09375 41.464844 16.613281 C 41.464844 12.128906 37.832031 8.5 33.351562 8.5 Z M 33.351562 23.101562 C 29.765625 23.101562 26.863281 20.195312 26.863281 16.613281 C 26.863281 13.027344 29.765625 10.121094 33.351562 10.121094 C 36.9375 10.121094 39.839844 13.027344 39.839844 16.613281 C 39.839844 20.195312 36.9375 23.101562 33.351562 23.101562 Z M 33.351562 23.101562 " fill-opacity="1" fill-rule="nonzero"/></g><g clip-path="url(#3835252be8)"><g clip-path="url(#ab06061f3e)"><g clip-path="url(#7d36aa91a5)"><path fill="#ffffff" d="M 45.632812 7.480469 C 40.5625 6.089844 35.324219 9.070312 33.933594 14.140625 C 32.539062 19.210938 35.519531 24.449219 40.589844 25.839844 C 45.660156 27.234375 50.898438 24.253906 52.289062 19.183594 C 53.683594 14.109375 50.703125 8.875 45.632812 7.480469 Z M 41.09375 24.003906 C 37.035156 22.890625 34.652344 18.703125 35.769531 14.644531 C 36.882812 10.585938 41.070312 8.203125 45.128906 9.316406 C 49.183594 10.433594 51.570312 14.621094 50.453125 18.679688 C 49.339844 22.734375 45.152344 25.121094 41.09375 24.003906 Z M 41.09375 24.003906 " fill-opacity="1" fill-rule="nonzero"/></g></g></g><g clip-path="url(#c0361d7a28)"><path fill="#38b6ff" d="M 42.328125 8.554688 C 37.847656 8.554688 34.21875 12.1875 34.21875 16.667969 C 34.21875 21.148438 37.847656 24.777344 42.328125 24.777344 C 46.8125 24.777344 50.441406 21.148438 50.441406 16.667969 C 50.441406 12.1875 46.8125 8.554688 42.328125 8.554688 Z M 42.328125 23.15625 C 38.746094 23.15625 35.839844 20.253906 35.839844 16.667969 C 35.839844 13.082031 38.746094 10.179688 42.328125 10.179688 C 45.914062 10.179688 48.816406 13.082031 48.816406 16.667969 C 48.816406 20.253906 45.914062 23.15625 42.328125 23.15625 Z M 42.328125 23.15625 " fill-opacity="1" fill-rule="nonzero"/></g><g fill="#03306d" fill-opacity="1"><g transform="translate(0.857145, 23.841121)"><g><path d="M 3.078125 -4.859375 L 3.078125 0 L 1.4375 0 L 1.4375 -12.4375 L 6.03125 -12.4375 C 7.382812 -12.4375 8.445312 -12.085938 9.21875 -11.390625 C 9.988281 -10.691406 10.375 -9.769531 10.375 -8.625 C 10.375 -7.425781 10 -6.5 9.25 -5.84375 C 8.5 -5.1875 7.421875 -4.859375 6.015625 -4.859375 Z M 3.078125 -6.203125 L 6.03125 -6.203125 C 6.90625 -6.203125 7.578125 -6.40625 8.046875 -6.8125 C 8.515625 -7.226562 8.75 -7.828125 8.75 -8.609375 C 8.75 -9.347656 8.515625 -9.941406 8.046875 -10.390625 C 7.578125 -10.835938 6.9375 -11.066406 6.125 -11.078125 L 3.078125 -11.078125 Z M 3.078125 -6.203125 "/></g></g></g><g fill="#03306d" fill-opacity="1"><g transform="translate(11.888776, 23.841121)"><g><path d="M 5.109375 -5.546875 C 3.703125 -5.941406 2.675781 -6.4375 2.03125 -7.03125 C 1.394531 -7.625 1.078125 -8.351562 1.078125 -9.21875 C 1.078125 -10.195312 1.46875 -11.003906 2.25 -11.640625 C 3.03125 -12.273438 4.046875 -12.59375 5.296875 -12.59375 C 6.148438 -12.59375 6.910156 -12.425781 7.578125 -12.09375 C 8.253906 -11.769531 8.773438 -11.316406 9.140625 -10.734375 C 9.503906 -10.160156 9.6875 -9.53125 9.6875 -8.84375 L 8.046875 -8.84375 C 8.046875 -9.59375 7.804688 -10.179688 7.328125 -10.609375 C 6.847656 -11.035156 6.171875 -11.25 5.296875 -11.25 C 4.492188 -11.25 3.863281 -11.070312 3.40625 -10.71875 C 2.957031 -10.363281 2.734375 -9.867188 2.734375 -9.234375 C 2.734375 -8.734375 2.945312 -8.304688 3.375 -7.953125 C 3.800781 -7.597656 4.53125 -7.273438 5.5625 -6.984375 C 6.601562 -6.703125 7.414062 -6.382812 8 -6.03125 C 8.582031 -5.675781 9.015625 -5.265625 9.296875 -4.796875 C 9.578125 -4.335938 9.71875 -3.789062 9.71875 -3.15625 C 9.71875 -2.144531 9.320312 -1.335938 8.53125 -0.734375 C 7.75 -0.128906 6.703125 0.171875 5.390625 0.171875 C 4.535156 0.171875 3.738281 0.0078125 3 -0.3125 C 2.257812 -0.644531 1.6875 -1.09375 1.28125 -1.65625 C 0.882812 -2.226562 0.6875 -2.878906 0.6875 -3.609375 L 2.328125 -3.609375 C 2.328125 -2.847656 2.601562 -2.25 3.15625 -1.8125 C 3.71875 -1.382812 4.460938 -1.171875 5.390625 -1.171875 C 6.253906 -1.171875 6.914062 -1.347656 7.375 -1.703125 C 7.832031 -2.054688 8.0625 -2.535156 8.0625 -3.140625 C 8.0625 -3.753906 7.847656 -4.222656 7.421875 -4.546875 C 6.992188 -4.878906 6.222656 -5.210938 5.109375 -5.546875 Z M 5.109375 -5.546875 "/></g></g></g><g fill="#03306d" fill-opacity="1"><g transform="translate(54.090168, 23.840343)"><g><path d="M 6 -5.03125 L 3.078125 -5.03125 L 3.078125 0 L 1.4375 0 L 1.4375 -12.4375 L 5.546875 -12.4375 C 6.953125 -12.4375 8.03125 -12.117188 8.78125 -11.484375 C 9.539062 -10.847656 9.921875 -9.921875 9.921875 -8.703125 C 9.921875 -7.921875 9.710938 -7.242188 9.296875 -6.671875 C 8.878906 -6.097656 8.296875 -5.671875 7.546875 -5.390625 L 10.46875 -0.109375 L 10.46875 0 L 8.703125 0 Z M 3.078125 -6.375 L 5.609375 -6.375 C 6.421875 -6.375 7.066406 -6.582031 7.546875 -7 C 8.023438 -7.425781 8.265625 -7.992188 8.265625 -8.703125 C 8.265625 -9.472656 8.035156 -10.0625 7.578125 -10.46875 C 7.117188 -10.875 6.457031 -11.082031 5.59375 -11.09375 L 3.078125 -11.09375 Z M 3.078125 -6.375 "/></g></g></g><g fill="#03306d" fill-opacity="1"><g transform="translate(64.861642, 23.840343)"><g><path d="M 8.484375 -5.75 L 3.078125 -5.75 L 3.078125 -1.34375 L 9.34375 -1.34375 L 9.34375 0 L 1.4375 0 L 1.4375 -12.4375 L 9.265625 -12.4375 L 9.265625 -11.09375 L 3.078125 -11.09375 L 3.078125 -7.09375 L 8.484375 -7.09375 Z M 8.484375 -5.75 "/></g></g></g><g fill="#03306d" fill-opacity="1"><g transform="translate(74.804541, 23.840343)"><g><path d="M 5.109375 -5.546875 C 3.703125 -5.953125 2.675781 -6.445312 2.03125 -7.03125 C 1.394531 -7.625 1.078125 -8.351562 1.078125 -9.21875 C 1.078125 -10.195312 1.46875 -11.003906 2.25 -11.640625 C 3.03125 -12.285156 4.050781 -12.609375 5.3125 -12.609375 C 6.164062 -12.609375 6.925781 -12.441406 7.59375 -12.109375 C 8.257812 -11.785156 8.773438 -11.332031 9.140625 -10.75 C 9.515625 -10.164062 9.703125 -9.53125 9.703125 -8.84375 L 8.046875 -8.84375 C 8.046875 -9.59375 7.804688 -10.179688 7.328125 -10.609375 C 6.847656 -11.046875 6.175781 -11.265625 5.3125 -11.265625 C 4.5 -11.265625 3.863281 -11.082031 3.40625 -10.71875 C 2.957031 -10.363281 2.734375 -9.875 2.734375 -9.25 C 2.734375 -8.738281 2.945312 -8.304688 3.375 -7.953125 C 3.8125 -7.609375 4.546875 -7.289062 5.578125 -7 C 6.609375 -6.707031 7.414062 -6.382812 8 -6.03125 C 8.582031 -5.6875 9.015625 -5.28125 9.296875 -4.8125 C 9.578125 -4.34375 9.71875 -3.789062 9.71875 -3.15625 C 9.71875 -2.15625 9.320312 -1.347656 8.53125 -0.734375 C 7.75 -0.128906 6.703125 0.171875 5.390625 0.171875 C 4.535156 0.171875 3.738281 0.0078125 3 -0.3125 C 2.257812 -0.644531 1.6875 -1.09375 1.28125 -1.65625 C 0.882812 -2.226562 0.6875 -2.878906 0.6875 -3.609375 L 2.328125 -3.609375 C 2.328125 -2.859375 2.601562 -2.265625 3.15625 -1.828125 C 3.71875 -1.390625 4.460938 -1.171875 5.390625 -1.171875 C 6.253906 -1.171875 6.914062 -1.347656 7.375 -1.703125 C 7.84375 -2.054688 8.078125 -2.535156 8.078125 -3.140625 C 8.078125 -3.753906 7.863281 -4.226562 7.4375 -4.5625 C 7.007812 -4.894531 6.234375 -5.222656 5.109375 -5.546875 Z M 5.109375 -5.546875 "/></g></g></g><g fill="#03306d" fill-opacity="1"><g transform="translate(85.183083, 23.840343)"><g><path d="M 10.046875 -11.09375 L 6.046875 -11.09375 L 6.046875 0 L 4.40625 0 L 4.40625 -11.09375 L 0.421875 -11.09375 L 0.421875 -12.4375 L 10.046875 -12.4375 Z M 10.046875 -11.09375 "/></g></g></g><g fill="#03306d" fill-opacity="1"><g transform="translate(95.621419, 23.840343)"><g><path d="M 1.96875 0 L 1.96875 -8.03125 L 0.515625 -8.03125 L 0.515625 -9.25 L 1.96875 -9.25 L 1.96875 -10.1875 C 1.96875 -11.1875 2.234375 -11.953125 2.765625 -12.484375 C 3.296875 -13.023438 4.046875 -13.296875 5.015625 -13.296875 C 5.378906 -13.296875 5.738281 -13.25 6.09375 -13.15625 L 6.015625 -11.875 C 5.742188 -11.925781 5.457031 -11.953125 5.15625 -11.953125 C 4.644531 -11.953125 4.25 -11.800781 3.96875 -11.5 C 3.695312 -11.207031 3.5625 -10.78125 3.5625 -10.21875 L 3.5625 -9.25 L 5.53125 -9.25 L 5.53125 -8.03125 L 3.5625 -8.03125 L 3.5625 0 Z M 1.96875 0 "/></g></g></g><g fill="#03306d" fill-opacity="1"><g transform="translate(101.694788, 23.840343)"><g><path d="M 6.90625 -0.921875 C 6.289062 -0.191406 5.390625 0.171875 4.203125 0.171875 C 3.210938 0.171875 2.457031 -0.113281 1.9375 -0.6875 C 1.425781 -1.257812 1.164062 -2.109375 1.15625 -3.234375 L 1.15625 -9.25 L 2.75 -9.25 L 2.75 -3.265625 C 2.75 -1.867188 3.316406 -1.171875 4.453125 -1.171875 C 5.660156 -1.171875 6.460938 -1.617188 6.859375 -2.515625 L 6.859375 -9.25 L 8.4375 -9.25 L 8.4375 0 L 6.9375 0 Z M 6.90625 -0.921875 "/></g></g></g><g fill="#03306d" fill-opacity="1"><g transform="translate(111.338717, 23.840343)"><g><path d="M 2.90625 0 L 1.328125 0 L 1.328125 -13.125 L 2.90625 -13.125 Z M 2.90625 0 "/></g></g></g></svg>