<svg xmlns="http://www.w3.org/2000/svg" xmlns:xlink="http://www.w3.org/1999/xlink" width="1000"
    height="504" version="1.0">
    <g clip-path="url(#37e55033fa)">
        <path fill="#004aad"
              d="M 49.351562 13.21875 C 47.273438 13.21875 45.59375 14.898438 45.59375 16.976562 C 45.59375 19.054688 47.273438 20.738281 49.351562 20.738281 C 51.429688 20.738281 53.113281 19.054688 53.113281 16.976562 C 53.113281 14.898438 51.429688 13.21875 49.351562 13.21875 Z M 49.351562 19.984375 C 47.691406 19.984375 46.34375 18.640625 46.34375 16.976562 C 46.34375 15.316406 47.691406 13.96875 49.351562 13.96875 C 51.015625 13.96875 52.359375 15.316406 52.359375 16.976562 C 52.359375 18.640625 51.015625 19.984375 49.351562 19.984375 Z M 49.351562 19.984375 "
              fill-opacity="1" fill-rule="nonzero"/>
    </g>
    <g clip-path="url(#e6c1cde810)">
        <path fill="#38b6ff"
              d="M 53.515625 13.242188 C 51.4375 13.242188 49.753906 14.925781 49.753906 17.003906 C 49.753906 19.082031 51.4375 20.761719 53.515625 20.761719 C 55.589844 20.761719 57.273438 19.082031 57.273438 17.003906 C 57.273438 14.925781 55.589844 13.242188 53.515625 13.242188 Z M 53.515625 20.011719 C 51.851562 20.011719 50.507812 18.664062 50.507812 17.003906 C 50.507812 15.339844 51.851562 13.996094 53.515625 13.996094 C 55.175781 13.996094 56.523438 15.339844 56.523438 17.003906 C 56.523438 18.664062 55.175781 20.011719 53.515625 20.011719 Z M 53.515625 20.011719 "
              fill-opacity="1" fill-rule="nonzero"/>
    </g>
    <g fill="#03306d" fill-opacity="1">
        <g transform="translate(36.498012, 19.390605)">
            <g>
                <path d="M 1.234375 -1.953125 L 1.234375 0 L 0.578125 0 L 0.578125 -4.984375 L 2.421875 -4.984375 C 2.960938 -4.984375 3.390625 -4.84375 3.703125 -4.5625 C 4.015625 -4.289062 4.171875 -3.925781 4.171875 -3.46875 C 4.171875 -2.976562 4.015625 -2.601562 3.703125 -2.34375 C 3.398438 -2.082031 2.96875 -1.953125 2.40625 -1.953125 Z M 1.234375 -2.484375 L 2.421875 -2.484375 C 2.773438 -2.484375 3.046875 -2.566406 3.234375 -2.734375 C 3.421875 -2.898438 3.515625 -3.140625 3.515625 -3.453125 C 3.515625 -3.753906 3.421875 -3.992188 3.234375 -4.171875 C 3.046875 -4.347656 2.785156 -4.441406 2.453125 -4.453125 L 1.234375 -4.453125 Z M 1.234375 -2.484375 "/>
            </g>
        </g>
    </g>
    <g fill="#03306d" fill-opacity="1">
        <g transform="translate(40.920981, 19.390605)">
            <g>
                <path d="M 2.046875 -2.21875 C 1.484375 -2.382812 1.070312 -2.582031 0.8125 -2.8125 C 0.5625 -3.050781 0.4375 -3.347656 0.4375 -3.703125 C 0.4375 -4.085938 0.59375 -4.410156 0.90625 -4.671875 C 1.21875 -4.929688 1.625 -5.0625 2.125 -5.0625 C 2.46875 -5.0625 2.773438 -4.992188 3.046875 -4.859375 C 3.316406 -4.722656 3.523438 -4.535156 3.671875 -4.296875 C 3.816406 -4.066406 3.890625 -3.816406 3.890625 -3.546875 L 3.234375 -3.546875 C 3.234375 -3.847656 3.132812 -4.082031 2.9375 -4.25 C 2.75 -4.425781 2.476562 -4.515625 2.125 -4.515625 C 1.800781 -4.515625 1.546875 -4.441406 1.359375 -4.296875 C 1.179688 -4.160156 1.09375 -3.960938 1.09375 -3.703125 C 1.09375 -3.503906 1.175781 -3.332031 1.34375 -3.1875 C 1.519531 -3.050781 1.816406 -2.921875 2.234375 -2.796875 C 2.648438 -2.679688 2.972656 -2.550781 3.203125 -2.40625 C 3.441406 -2.269531 3.613281 -2.109375 3.71875 -1.921875 C 3.832031 -1.734375 3.890625 -1.515625 3.890625 -1.265625 C 3.890625 -0.859375 3.734375 -0.535156 3.421875 -0.296875 C 3.109375 -0.0546875 2.6875 0.0625 2.15625 0.0625 C 1.8125 0.0625 1.488281 0 1.1875 -0.125 C 0.894531 -0.257812 0.671875 -0.441406 0.515625 -0.671875 C 0.359375 -0.898438 0.28125 -1.160156 0.28125 -1.453125 L 0.9375 -1.453125 C 0.9375 -1.148438 1.046875 -0.910156 1.265625 -0.734375 C 1.492188 -0.554688 1.789062 -0.46875 2.15625 -0.46875 C 2.507812 -0.46875 2.773438 -0.535156 2.953125 -0.671875 C 3.140625 -0.816406 3.234375 -1.007812 3.234375 -1.25 C 3.234375 -1.5 3.144531 -1.691406 2.96875 -1.828125 C 2.800781 -1.960938 2.492188 -2.09375 2.046875 -2.21875 Z M 2.046875 -2.21875 "/>
            </g>
        </g>
    </g>
    <g fill="#03306d" fill-opacity="1">
        <g transform="translate(58.250016, 19.390916)">
            <g>
                <path d="M 2.40625 -2.015625 L 1.234375 -2.015625 L 1.234375 0 L 0.578125 0 L 0.578125 -4.984375 L 2.234375 -4.984375 C 2.785156 -4.984375 3.210938 -4.851562 3.515625 -4.59375 C 3.828125 -4.34375 3.984375 -3.972656 3.984375 -3.484375 C 3.984375 -3.171875 3.894531 -2.898438 3.71875 -2.671875 C 3.550781 -2.441406 3.320312 -2.269531 3.03125 -2.15625 L 4.203125 -0.046875 L 4.203125 0 L 3.484375 0 Z M 1.234375 -2.5625 L 2.25 -2.5625 C 2.570312 -2.5625 2.828125 -2.644531 3.015625 -2.8125 C 3.210938 -2.976562 3.3125 -3.203125 3.3125 -3.484375 C 3.3125 -3.796875 3.21875 -4.03125 3.03125 -4.1875 C 2.851562 -4.351562 2.59375 -4.441406 2.25 -4.453125 L 1.234375 -4.453125 Z M 1.234375 -2.5625 "/>
            </g>
        </g>
    </g>
    <g fill="#03306d" fill-opacity="1">
        <g transform="translate(62.568678, 19.390916)">
            <g>
                <path d="M 3.390625 -2.3125 L 1.234375 -2.3125 L 1.234375 -0.53125 L 3.75 -0.53125 L 3.75 0 L 0.578125 0 L 0.578125 -4.984375 L 3.71875 -4.984375 L 3.71875 -4.453125 L 1.234375 -4.453125 L 1.234375 -2.84375 L 3.390625 -2.84375 Z M 3.390625 -2.3125 "/>
            </g>
        </g>
    </g>
    <g fill="#03306d" fill-opacity="1">
        <g transform="translate(66.555135, 19.390916)">
            <g>
                <path d="M 2.046875 -2.21875 C 1.484375 -2.382812 1.070312 -2.582031 0.8125 -2.8125 C 0.5625 -3.050781 0.4375 -3.347656 0.4375 -3.703125 C 0.4375 -4.085938 0.59375 -4.410156 0.90625 -4.671875 C 1.21875 -4.929688 1.625 -5.0625 2.125 -5.0625 C 2.46875 -5.0625 2.773438 -4.992188 3.046875 -4.859375 C 3.316406 -4.722656 3.523438 -4.535156 3.671875 -4.296875 C 3.816406 -4.066406 3.890625 -3.816406 3.890625 -3.546875 L 3.234375 -3.546875 C 3.234375 -3.847656 3.132812 -4.082031 2.9375 -4.25 C 2.75 -4.425781 2.476562 -4.515625 2.125 -4.515625 C 1.800781 -4.515625 1.546875 -4.441406 1.359375 -4.296875 C 1.179688 -4.160156 1.09375 -3.960938 1.09375 -3.703125 C 1.09375 -3.503906 1.175781 -3.332031 1.34375 -3.1875 C 1.519531 -3.050781 1.816406 -2.921875 2.234375 -2.796875 C 2.648438 -2.679688 2.972656 -2.550781 3.203125 -2.40625 C 3.441406 -2.269531 3.613281 -2.109375 3.71875 -1.921875 C 3.832031 -1.734375 3.890625 -1.515625 3.890625 -1.265625 C 3.890625 -0.859375 3.734375 -0.535156 3.421875 -0.296875 C 3.109375 -0.0546875 2.6875 0.0625 2.15625 0.0625 C 1.8125 0.0625 1.488281 0 1.1875 -0.125 C 0.894531 -0.257812 0.671875 -0.441406 0.515625 -0.671875 C 0.359375 -0.898438 0.28125 -1.160156 0.28125 -1.453125 L 0.9375 -1.453125 C 0.9375 -1.148438 1.046875 -0.910156 1.265625 -0.734375 C 1.492188 -0.554688 1.789062 -0.46875 2.15625 -0.46875 C 2.507812 -0.46875 2.773438 -0.535156 2.953125 -0.671875 C 3.140625 -0.816406 3.234375 -1.007812 3.234375 -1.25 C 3.234375 -1.5 3.144531 -1.691406 2.96875 -1.828125 C 2.800781 -1.960938 2.492188 -2.09375 2.046875 -2.21875 Z M 2.046875 -2.21875 "/>
            </g>
        </g>
    </g>
    <g fill="#03306d" fill-opacity="1">
        <g transform="translate(70.716257, 19.390916)">
            <g>
                <path d="M 4.03125 -4.453125 L 2.421875 -4.453125 L 2.421875 0 L 1.765625 0 L 1.765625 -4.453125 L 0.171875 -4.453125 L 0.171875 -4.984375 L 4.03125 -4.984375 Z M 4.03125 -4.453125 "/>
            </g>
        </g>
    </g>
    <g fill="#03306d" fill-opacity="1">
        <g transform="translate(74.901352, 19.390916)">
            <g>
                <path d="M 0.796875 0 L 0.796875 -3.21875 L 0.203125 -3.21875 L 0.203125 -3.703125 L 0.796875 -3.703125 L 0.796875 -4.09375 C 0.796875 -4.488281 0.898438 -4.789062 1.109375 -5 C 1.316406 -5.21875 1.617188 -5.328125 2.015625 -5.328125 C 2.160156 -5.328125 2.304688 -5.3125 2.453125 -5.28125 L 2.40625 -4.765625 C 2.300781 -4.785156 2.1875 -4.796875 2.0625 -4.796875 C 1.863281 -4.796875 1.707031 -4.734375 1.59375 -4.609375 C 1.476562 -4.492188 1.421875 -4.320312 1.421875 -4.09375 L 1.421875 -3.703125 L 2.21875 -3.703125 L 2.21875 -3.21875 L 1.421875 -3.21875 L 1.421875 0 Z M 0.796875 0 "/>
            </g>
        </g>
    </g>
    <g fill="#03306d" fill-opacity="1">
        <g transform="translate(77.336379, 19.390916)">
            <g>
                <path d="M 2.765625 -0.359375 C 2.515625 -0.078125 2.15625 0.0625 1.6875 0.0625 C 1.289062 0.0625 0.988281 -0.0507812 0.78125 -0.28125 C 0.570312 -0.507812 0.46875 -0.847656 0.46875 -1.296875 L 0.46875 -3.703125 L 1.09375 -3.703125 L 1.09375 -1.3125 C 1.09375 -0.75 1.320312 -0.46875 1.78125 -0.46875 C 2.269531 -0.46875 2.59375 -0.648438 2.75 -1.015625 L 2.75 -3.703125 L 3.390625 -3.703125 L 3.390625 0 L 2.78125 0 Z M 2.765625 -0.359375 "/>
            </g>
        </g>
    </g>
    <g fill="#03306d" fill-opacity="1">
        <g transform="translate(81.202968, 19.390916)">
            <g>
                <path d="M 1.171875 0 L 0.53125 0 L 0.53125 -5.265625 L 1.171875 -5.265625 Z M 1.171875 0 "/>
            </g>
        </g>
    </g>
</svg>